<svg width="21" height="21" viewBox="0 0 21 21" fill="none" xmlns="http://www.w3.org/2000/svg">
<path d="M16.3074 13.1665C15.8979 12.7402 15.4041 12.5123 14.8806 12.5123C14.3614 12.5123 13.8633 12.736 13.437 13.1623L12.1031 14.492C11.9934 14.4329 11.8836 14.378 11.7781 14.3231C11.6261 14.2471 11.4826 14.1754 11.3602 14.0994C10.1108 13.3058 8.97527 12.2716 7.88621 10.9335C7.35857 10.2666 7.004 9.70519 6.74651 9.13534C7.09264 8.81876 7.41345 8.48951 7.72581 8.17292C7.844 8.05473 7.9622 7.93232 8.08039 7.81413C8.96683 6.92769 8.96683 5.77954 8.08039 4.8931L6.92802 3.74073C6.79716 3.60987 6.66209 3.4748 6.53545 3.33972C6.28218 3.07801 6.01625 2.80786 5.74188 2.55459C5.33243 2.14936 4.84277 1.93408 4.3278 1.93408C3.81282 1.93408 3.31472 2.14936 2.89261 2.55459C2.88839 2.55881 2.88839 2.55881 2.88417 2.56303L1.44898 4.01088C0.908675 4.55119 0.600533 5.20968 0.532994 5.97371C0.431687 7.20628 0.794705 8.35443 1.0733 9.10579C1.75712 10.9504 2.77864 12.66 4.30247 14.492C6.15133 16.6996 8.37587 18.4429 10.917 19.6713C11.8879 20.1314 13.1837 20.6759 14.6316 20.7688C14.7202 20.773 14.8131 20.7772 14.8975 20.7772C15.8726 20.7772 16.6915 20.4269 17.3331 19.7304C17.3373 19.722 17.3458 19.7177 17.35 19.7093C17.5695 19.4434 17.8228 19.2028 18.0887 18.9453C18.2702 18.7722 18.4559 18.5907 18.6375 18.4007C19.0553 17.966 19.2748 17.4594 19.2748 16.9402C19.2748 16.4168 19.0511 15.9145 18.6248 15.4924L16.3074 13.1665ZM17.8186 17.6114C17.8143 17.6114 17.8143 17.6156 17.8186 17.6114C17.6539 17.7887 17.4851 17.9491 17.3036 18.1264C17.0292 18.3881 16.7506 18.6624 16.4889 18.9706C16.0626 19.4265 15.5602 19.6418 14.9017 19.6418C14.8384 19.6418 14.7709 19.6418 14.7076 19.6375C13.4539 19.5573 12.2889 19.0677 11.4151 18.6498C9.02592 17.4932 6.92802 15.8512 5.18469 13.7701C3.74528 12.0353 2.78286 10.4312 2.14547 8.70901C1.7529 7.65794 1.60938 6.83904 1.6727 6.06658C1.71491 5.5727 1.90486 5.16325 2.25522 4.8129L3.69463 3.37349C3.90146 3.17932 4.12096 3.07379 4.33624 3.07379C4.60217 3.07379 4.81745 3.23419 4.95252 3.36927C4.95675 3.37349 4.96097 3.37771 4.96519 3.38193C5.22268 3.62254 5.4675 3.87158 5.72499 4.13752C5.85585 4.27259 5.99092 4.40767 6.126 4.54697L7.27837 5.69934C7.72581 6.14678 7.72581 6.56045 7.27837 7.00789C7.15596 7.1303 7.03777 7.25271 6.91535 7.37091C6.56078 7.73392 6.22309 8.07161 5.85585 8.40086C5.84741 8.40931 5.83896 8.41353 5.83474 8.42197C5.47172 8.78499 5.53926 9.13956 5.61524 9.38017C5.61946 9.39283 5.62369 9.40549 5.62791 9.41816C5.92761 10.1442 6.34972 10.828 6.99133 11.6427L6.99555 11.6469C8.16059 13.0821 9.38894 14.2007 10.7439 15.0576C10.917 15.1673 11.0943 15.256 11.2631 15.3404C11.4151 15.4164 11.5586 15.4882 11.681 15.5641C11.6979 15.5726 11.7148 15.5852 11.7317 15.5937C11.8752 15.6654 12.0103 15.6992 12.1496 15.6992C12.4999 15.6992 12.7194 15.4797 12.7912 15.408L14.2348 13.9643C14.3783 13.8208 14.6063 13.6477 14.8722 13.6477C15.1339 13.6477 15.3492 13.8124 15.48 13.9559C15.4843 13.9601 15.4843 13.9601 15.4885 13.9643L17.8143 16.2902C18.2491 16.7207 18.2491 17.1639 17.8186 17.6114Z" fill="white"/>
<path d="M11.3099 5.53475C12.4158 5.72048 13.4205 6.2439 14.2225 7.04592C15.0245 7.84793 15.5437 8.85256 15.7336 9.9585C15.7801 10.2371 16.0207 10.4313 16.295 10.4313C16.3288 10.4313 16.3584 10.427 16.3921 10.4228C16.7045 10.3722 16.9113 10.0767 16.8607 9.76433C16.6327 8.42623 15.9996 7.20632 15.0329 6.23968C14.0663 5.27304 12.8464 4.63987 11.5083 4.41193C11.1959 4.36127 10.9047 4.56811 10.8498 4.87625C10.7949 5.18439 10.9975 5.48409 11.3099 5.53475Z" fill="white"/>
<path d="M20.4776 9.59977C20.1019 7.39633 19.0635 5.39129 17.4679 3.7957C15.8723 2.20011 13.8673 1.16171 11.6639 0.786031C11.3557 0.731157 11.0645 0.942214 11.0096 1.25036C10.9589 1.56272 11.1658 1.85398 11.4781 1.90885C13.4452 2.24232 15.2392 3.17519 16.6659 4.59772C18.0926 6.02446 19.0213 7.81845 19.3548 9.7855C19.4012 10.0641 19.6418 10.2583 19.9162 10.2583C19.9499 10.2583 19.9795 10.254 20.0133 10.2498C20.3214 10.2034 20.5325 9.90791 20.4776 9.59977Z" fill="white"/>
</svg>
