<svg width="30" height="31" viewBox="0 0 30 31" fill="none" xmlns="http://www.w3.org/2000/svg">
<path d="M25.2624 11.0396C25.2624 5.37191 20.6678 0.777344 15.0001 0.777344C9.3324 0.777344 4.73783 5.37191 4.73783 11.0396C3.27261 11.222 1.88721 12.1799 1.88721 14.4033V19.7625C1.88721 22.2711 3.64319 23.1833 5.30796 23.1833H6.96132C7.27618 23.1833 7.53145 22.928 7.53145 22.6131V11.5755C7.53145 11.2607 7.27618 11.0054 6.96132 11.0054H5.87809C5.87809 5.96748 9.96218 1.88339 15.0001 1.88339C20.038 1.88339 24.1221 5.96748 24.1221 11.0054H23.0389C22.724 11.0054 22.4687 11.2607 22.4687 11.5755V22.596C22.4687 22.9109 22.724 23.1662 23.0389 23.1662H24.1221C23.9625 27.0829 22.0811 28.0008 18.3239 28.1662V27.7842C18.3239 27.1544 17.8134 26.6439 17.1837 26.6439H13.5976C12.9678 26.6439 12.4573 27.1544 12.4573 27.7842V29.6371C12.4573 30.2669 12.9678 30.7773 13.5976 30.7773H17.1951C17.8249 30.7773 18.3353 30.2669 18.3353 29.6371V29.3064C21.9499 29.1411 25.0742 28.3942 25.2624 23.132C26.7276 22.9495 28.113 21.9917 28.113 19.7682V14.409C28.113 12.1742 26.7333 11.222 25.2624 11.0396ZM6.3912 12.1057V22.0259H5.27945C4.43567 22.0259 2.99895 21.7295 2.99895 19.7454V14.3862C2.99895 12.4193 4.41856 12.1057 5.27945 12.1057H6.3912ZM17.1951 28.7762V29.6428H13.5976V27.7899H17.1951V28.7762ZM26.9727 19.7625C26.9727 21.7295 25.5531 22.043 24.6922 22.043H23.609V12.1456H24.7207C25.5645 12.1456 27.0012 12.4421 27.0012 14.4261L26.9727 19.7625Z" fill="#000309"/>
</svg>
