<svg width="31" height="31" viewBox="0 0 31 31" fill="none" xmlns="http://www.w3.org/2000/svg">
<mask id="path-1-outside-1_6750_3113" maskUnits="userSpaceOnUse" x="0.0273438" y="0.304688" width="31" height="31" fill="black">
<rect fill="white" x="0.0273438" y="0.304688" width="31" height="31"/>
<path d="M15.838 8.1611C15.7756 8.1251 15.7049 8.10615 15.6329 8.10615C15.5609 8.10615 15.4902 8.1251 15.4278 8.1611L9.17316 11.7722C9.11081 11.8082 9.05904 11.86 9.02304 11.9224C8.98704 11.9847 8.96809 12.0554 8.96809 12.1274V19.3497C8.96809 19.4217 8.98704 19.4924 9.02304 19.5548C9.05904 19.6171 9.11081 19.6689 9.17316 19.7049L15.4278 23.3161C15.4902 23.3521 15.5609 23.371 15.6329 23.371C15.7049 23.371 15.7756 23.3521 15.838 23.3161L22.0927 19.7049C22.155 19.6689 22.2068 19.6171 22.2428 19.5548C22.2788 19.4924 22.2978 19.4217 22.2978 19.3497V12.1274C22.2978 12.0554 22.2788 11.9847 22.2428 11.9224C22.2068 11.86 22.155 11.8082 22.0927 11.7722L15.838 8.1611ZM15.6329 8.98991L21.0672 12.1274L15.6329 15.2649L10.1986 12.1274L15.6329 8.98991ZM9.7884 12.8379L15.2227 15.9753V22.2507L9.7884 19.1132V12.8379ZM16.043 22.2504V15.975L21.4774 12.8375V19.1129L16.043 22.2504ZM1.94322 17.4018C1.94959 17.4553 1.94535 17.5096 1.93074 17.5615C1.91613 17.6133 1.89144 17.6618 1.85807 17.7042C1.82471 17.7465 1.78333 17.7818 1.7363 17.8082C1.68927 17.8345 1.63751 17.8513 1.58398 17.8576C1.56781 17.8595 1.55153 17.8605 1.53523 17.8605C1.43489 17.8604 1.33808 17.8235 1.26312 17.7568C1.18816 17.6901 1.14026 17.5982 1.12848 17.4985C1.06108 16.9273 1.02731 16.3527 1.02734 15.7775C1.02793 13.2286 1.70152 10.725 2.98 8.51992C4.25849 6.31482 6.09653 4.48638 8.3083 3.21947C10.5201 1.95256 13.0271 1.2921 15.576 1.30487C18.1249 1.31764 20.6253 2.00318 22.8242 3.29219C24.6063 4.34163 26.1443 5.75869 27.3359 7.44901L27.3029 2.72371C27.3026 2.66985 27.3128 2.61644 27.333 2.56653C27.3533 2.51662 27.3832 2.47119 27.421 2.43283C27.4974 2.35536 27.6014 2.3114 27.7102 2.31063C27.819 2.30985 27.9236 2.35232 28.0011 2.42869C28.0785 2.50506 28.1225 2.60907 28.1233 2.71785L28.1662 8.87354C28.1666 8.92764 28.1563 8.98129 28.1358 9.03138C28.1154 9.08147 28.0852 9.12703 28.0471 9.16542C28.009 9.20381 27.9636 9.23428 27.9137 9.25507C27.8637 9.27586 27.8102 9.28657 27.7561 9.28657C27.7521 9.28657 27.7481 9.28657 27.7443 9.28657L22.0259 9.12162C21.9719 9.12042 21.9186 9.10854 21.8691 9.08666C21.8197 9.06478 21.775 9.03334 21.7377 8.99414C21.7005 8.95494 21.6714 8.90875 21.652 8.85825C21.6327 8.80774 21.6235 8.75391 21.6251 8.69985C21.6266 8.64579 21.6388 8.59257 21.661 8.54325C21.6832 8.49393 21.7149 8.44949 21.7544 8.41248C21.7938 8.37547 21.8402 8.34663 21.8908 8.32761C21.9414 8.30859 21.9953 8.29977 22.0494 8.30166L27.0181 8.44498C25.7807 6.51161 24.0777 4.91985 22.0653 3.81567C20.0529 2.71148 17.7954 2.13022 15.5 2.12518C7.97205 2.12518 1.84766 8.24957 1.84766 15.7775C1.84768 16.3204 1.87959 16.8627 1.94322 17.4018ZM29.9727 15.7775C29.9718 18.2632 29.3309 20.7068 28.1119 22.873C26.8928 25.0392 25.1365 26.8551 23.0121 28.1457C20.8877 29.4363 18.4668 30.1582 15.9826 30.2419C13.4983 30.3257 11.0343 29.7684 8.82787 28.6237C7.14909 27.7464 5.65706 26.5508 4.43498 25.1035L4.25398 29.3185C4.24946 29.4241 4.20435 29.5239 4.12806 29.597C4.05178 29.6702 3.95021 29.711 3.84453 29.7111C3.83867 29.7111 3.83281 29.7111 3.8266 29.7107C3.71792 29.706 3.61555 29.6584 3.542 29.5782C3.46846 29.4981 3.42976 29.392 3.43443 29.2833L3.66295 23.9578C3.66722 23.8517 3.71256 23.7515 3.78939 23.6782C3.86623 23.6049 3.96853 23.5644 4.07469 23.5652L9.96289 23.5939C10.0168 23.5941 10.0701 23.6048 10.1198 23.6255C10.1695 23.6462 10.2146 23.6766 10.2526 23.7147C10.2906 23.7529 10.3207 23.7982 10.3412 23.848C10.3617 23.8978 10.3722 23.9512 10.3721 24.0051C10.372 24.0589 10.3612 24.1122 10.3405 24.1619C10.3198 24.2117 10.2894 24.2568 10.2513 24.2948C10.2131 24.3328 10.1678 24.3629 10.118 24.3834C10.0682 24.4039 10.0148 24.4144 9.96096 24.4142H9.95896L4.9073 24.3898C6.19003 25.9613 7.80553 27.2286 9.63731 28.1001C11.4691 28.9717 13.4715 29.4259 15.5 29.4299C23.028 29.4299 29.1523 23.3055 29.1523 15.7775C29.1523 15.6687 29.1956 15.5644 29.2725 15.4875C29.3494 15.4106 29.4537 15.3674 29.5625 15.3674C29.6713 15.3674 29.7756 15.4106 29.8525 15.4875C29.9294 15.5644 29.9727 15.6687 29.9727 15.7775Z"/>
</mask>
<path d="M15.838 8.1611C15.7756 8.1251 15.7049 8.10615 15.6329 8.10615C15.5609 8.10615 15.4902 8.1251 15.4278 8.1611L9.17316 11.7722C9.11081 11.8082 9.05904 11.86 9.02304 11.9224C8.98704 11.9847 8.96809 12.0554 8.96809 12.1274V19.3497C8.96809 19.4217 8.98704 19.4924 9.02304 19.5548C9.05904 19.6171 9.11081 19.6689 9.17316 19.7049L15.4278 23.3161C15.4902 23.3521 15.5609 23.371 15.6329 23.371C15.7049 23.371 15.7756 23.3521 15.838 23.3161L22.0927 19.7049C22.155 19.6689 22.2068 19.6171 22.2428 19.5548C22.2788 19.4924 22.2978 19.4217 22.2978 19.3497V12.1274C22.2978 12.0554 22.2788 11.9847 22.2428 11.9224C22.2068 11.86 22.155 11.8082 22.0927 11.7722L15.838 8.1611ZM15.6329 8.98991L21.0672 12.1274L15.6329 15.2649L10.1986 12.1274L15.6329 8.98991ZM9.7884 12.8379L15.2227 15.9753V22.2507L9.7884 19.1132V12.8379ZM16.043 22.2504V15.975L21.4774 12.8375V19.1129L16.043 22.2504ZM1.94322 17.4018C1.94959 17.4553 1.94535 17.5096 1.93074 17.5615C1.91613 17.6133 1.89144 17.6618 1.85807 17.7042C1.82471 17.7465 1.78333 17.7818 1.7363 17.8082C1.68927 17.8345 1.63751 17.8513 1.58398 17.8576C1.56781 17.8595 1.55153 17.8605 1.53523 17.8605C1.43489 17.8604 1.33808 17.8235 1.26312 17.7568C1.18816 17.6901 1.14026 17.5982 1.12848 17.4985C1.06108 16.9273 1.02731 16.3527 1.02734 15.7775C1.02793 13.2286 1.70152 10.725 2.98 8.51992C4.25849 6.31482 6.09653 4.48638 8.3083 3.21947C10.5201 1.95256 13.0271 1.2921 15.576 1.30487C18.1249 1.31764 20.6253 2.00318 22.8242 3.29219C24.6063 4.34163 26.1443 5.75869 27.3359 7.44901L27.3029 2.72371C27.3026 2.66985 27.3128 2.61644 27.333 2.56653C27.3533 2.51662 27.3832 2.47119 27.421 2.43283C27.4974 2.35536 27.6014 2.3114 27.7102 2.31063C27.819 2.30985 27.9236 2.35232 28.0011 2.42869C28.0785 2.50506 28.1225 2.60907 28.1233 2.71785L28.1662 8.87354C28.1666 8.92764 28.1563 8.98129 28.1358 9.03138C28.1154 9.08147 28.0852 9.12703 28.0471 9.16542C28.009 9.20381 27.9636 9.23428 27.9137 9.25507C27.8637 9.27586 27.8102 9.28657 27.7561 9.28657C27.7521 9.28657 27.7481 9.28657 27.7443 9.28657L22.0259 9.12162C21.9719 9.12042 21.9186 9.10854 21.8691 9.08666C21.8197 9.06478 21.775 9.03334 21.7377 8.99414C21.7005 8.95494 21.6714 8.90875 21.652 8.85825C21.6327 8.80774 21.6235 8.75391 21.6251 8.69985C21.6266 8.64579 21.6388 8.59257 21.661 8.54325C21.6832 8.49393 21.7149 8.44949 21.7544 8.41248C21.7938 8.37547 21.8402 8.34663 21.8908 8.32761C21.9414 8.30859 21.9953 8.29977 22.0494 8.30166L27.0181 8.44498C25.7807 6.51161 24.0777 4.91985 22.0653 3.81567C20.0529 2.71148 17.7954 2.13022 15.5 2.12518C7.97205 2.12518 1.84766 8.24957 1.84766 15.7775C1.84768 16.3204 1.87959 16.8627 1.94322 17.4018ZM29.9727 15.7775C29.9718 18.2632 29.3309 20.7068 28.1119 22.873C26.8928 25.0392 25.1365 26.8551 23.0121 28.1457C20.8877 29.4363 18.4668 30.1582 15.9826 30.2419C13.4983 30.3257 11.0343 29.7684 8.82787 28.6237C7.14909 27.7464 5.65706 26.5508 4.43498 25.1035L4.25398 29.3185C4.24946 29.4241 4.20435 29.5239 4.12806 29.597C4.05178 29.6702 3.95021 29.711 3.84453 29.7111C3.83867 29.7111 3.83281 29.7111 3.8266 29.7107C3.71792 29.706 3.61555 29.6584 3.542 29.5782C3.46846 29.4981 3.42976 29.392 3.43443 29.2833L3.66295 23.9578C3.66722 23.8517 3.71256 23.7515 3.78939 23.6782C3.86623 23.6049 3.96853 23.5644 4.07469 23.5652L9.96289 23.5939C10.0168 23.5941 10.0701 23.6048 10.1198 23.6255C10.1695 23.6462 10.2146 23.6766 10.2526 23.7147C10.2906 23.7529 10.3207 23.7982 10.3412 23.848C10.3617 23.8978 10.3722 23.9512 10.3721 24.0051C10.372 24.0589 10.3612 24.1122 10.3405 24.1619C10.3198 24.2117 10.2894 24.2568 10.2513 24.2948C10.2131 24.3328 10.1678 24.3629 10.118 24.3834C10.0682 24.4039 10.0148 24.4144 9.96096 24.4142H9.95896L4.9073 24.3898C6.19003 25.9613 7.80553 27.2286 9.63731 28.1001C11.4691 28.9717 13.4715 29.4259 15.5 29.4299C23.028 29.4299 29.1523 23.3055 29.1523 15.7775C29.1523 15.6687 29.1956 15.5644 29.2725 15.4875C29.3494 15.4106 29.4537 15.3674 29.5625 15.3674C29.6713 15.3674 29.7756 15.4106 29.8525 15.4875C29.9294 15.5644 29.9727 15.6687 29.9727 15.7775Z" fill="#000309"/>
<path d="M15.838 8.1611C15.7756 8.1251 15.7049 8.10615 15.6329 8.10615C15.5609 8.10615 15.4902 8.1251 15.4278 8.1611L9.17316 11.7722C9.11081 11.8082 9.05904 11.86 9.02304 11.9224C8.98704 11.9847 8.96809 12.0554 8.96809 12.1274V19.3497C8.96809 19.4217 8.98704 19.4924 9.02304 19.5548C9.05904 19.6171 9.11081 19.6689 9.17316 19.7049L15.4278 23.3161C15.4902 23.3521 15.5609 23.371 15.6329 23.371C15.7049 23.371 15.7756 23.3521 15.838 23.3161L22.0927 19.7049C22.155 19.6689 22.2068 19.6171 22.2428 19.5548C22.2788 19.4924 22.2978 19.4217 22.2978 19.3497V12.1274C22.2978 12.0554 22.2788 11.9847 22.2428 11.9224C22.2068 11.86 22.155 11.8082 22.0927 11.7722L15.838 8.1611ZM15.6329 8.98991L21.0672 12.1274L15.6329 15.2649L10.1986 12.1274L15.6329 8.98991ZM9.7884 12.8379L15.2227 15.9753V22.2507L9.7884 19.1132V12.8379ZM16.043 22.2504V15.975L21.4774 12.8375V19.1129L16.043 22.2504ZM1.94322 17.4018C1.94959 17.4553 1.94535 17.5096 1.93074 17.5615C1.91613 17.6133 1.89144 17.6618 1.85807 17.7042C1.82471 17.7465 1.78333 17.7818 1.7363 17.8082C1.68927 17.8345 1.63751 17.8513 1.58398 17.8576C1.56781 17.8595 1.55153 17.8605 1.53523 17.8605C1.43489 17.8604 1.33808 17.8235 1.26312 17.7568C1.18816 17.6901 1.14026 17.5982 1.12848 17.4985C1.06108 16.9273 1.02731 16.3527 1.02734 15.7775C1.02793 13.2286 1.70152 10.725 2.98 8.51992C4.25849 6.31482 6.09653 4.48638 8.3083 3.21947C10.5201 1.95256 13.0271 1.2921 15.576 1.30487C18.1249 1.31764 20.6253 2.00318 22.8242 3.29219C24.6063 4.34163 26.1443 5.75869 27.3359 7.44901L27.3029 2.72371C27.3026 2.66985 27.3128 2.61644 27.333 2.56653C27.3533 2.51662 27.3832 2.47119 27.421 2.43283C27.4974 2.35536 27.6014 2.3114 27.7102 2.31063C27.819 2.30985 27.9236 2.35232 28.0011 2.42869C28.0785 2.50506 28.1225 2.60907 28.1233 2.71785L28.1662 8.87354C28.1666 8.92764 28.1563 8.98129 28.1358 9.03138C28.1154 9.08147 28.0852 9.12703 28.0471 9.16542C28.009 9.20381 27.9636 9.23428 27.9137 9.25507C27.8637 9.27586 27.8102 9.28657 27.7561 9.28657C27.7521 9.28657 27.7481 9.28657 27.7443 9.28657L22.0259 9.12162C21.9719 9.12042 21.9186 9.10854 21.8691 9.08666C21.8197 9.06478 21.775 9.03334 21.7377 8.99414C21.7005 8.95494 21.6714 8.90875 21.652 8.85825C21.6327 8.80774 21.6235 8.75391 21.6251 8.69985C21.6266 8.64579 21.6388 8.59257 21.661 8.54325C21.6832 8.49393 21.7149 8.44949 21.7544 8.41248C21.7938 8.37547 21.8402 8.34663 21.8908 8.32761C21.9414 8.30859 21.9953 8.29977 22.0494 8.30166L27.0181 8.44498C25.7807 6.51161 24.0777 4.91985 22.0653 3.81567C20.0529 2.71148 17.7954 2.13022 15.5 2.12518C7.97205 2.12518 1.84766 8.24957 1.84766 15.7775C1.84768 16.3204 1.87959 16.8627 1.94322 17.4018ZM29.9727 15.7775C29.9718 18.2632 29.3309 20.7068 28.1119 22.873C26.8928 25.0392 25.1365 26.8551 23.0121 28.1457C20.8877 29.4363 18.4668 30.1582 15.9826 30.2419C13.4983 30.3257 11.0343 29.7684 8.82787 28.6237C7.14909 27.7464 5.65706 26.5508 4.43498 25.1035L4.25398 29.3185C4.24946 29.4241 4.20435 29.5239 4.12806 29.597C4.05178 29.6702 3.95021 29.711 3.84453 29.7111C3.83867 29.7111 3.83281 29.7111 3.8266 29.7107C3.71792 29.706 3.61555 29.6584 3.542 29.5782C3.46846 29.4981 3.42976 29.392 3.43443 29.2833L3.66295 23.9578C3.66722 23.8517 3.71256 23.7515 3.78939 23.6782C3.86623 23.6049 3.96853 23.5644 4.07469 23.5652L9.96289 23.5939C10.0168 23.5941 10.0701 23.6048 10.1198 23.6255C10.1695 23.6462 10.2146 23.6766 10.2526 23.7147C10.2906 23.7529 10.3207 23.7982 10.3412 23.848C10.3617 23.8978 10.3722 23.9512 10.3721 24.0051C10.372 24.0589 10.3612 24.1122 10.3405 24.1619C10.3198 24.2117 10.2894 24.2568 10.2513 24.2948C10.2131 24.3328 10.1678 24.3629 10.118 24.3834C10.0682 24.4039 10.0148 24.4144 9.96096 24.4142H9.95896L4.9073 24.3898C6.19003 25.9613 7.80553 27.2286 9.63731 28.1001C11.4691 28.9717 13.4715 29.4259 15.5 29.4299C23.028 29.4299 29.1523 23.3055 29.1523 15.7775C29.1523 15.6687 29.1956 15.5644 29.2725 15.4875C29.3494 15.4106 29.4537 15.3674 29.5625 15.3674C29.6713 15.3674 29.7756 15.4106 29.8525 15.4875C29.9294 15.5644 29.9727 15.6687 29.9727 15.7775Z" stroke="black" stroke-width="0.2" mask="url(#path-1-outside-1_6750_3113)"/>
</svg>
