<svg width="16" height="16" viewBox="0 0 16 16" fill="none" xmlns="http://www.w3.org/2000/svg">
<g clip-path="url(#clip0_6750_3210)">
<path d="M15.4971 8.27734C15.4971 4.13522 12.1392 0.777344 7.99707 0.777344C3.85495 0.777344 0.49707 4.13522 0.49707 8.27734C0.49707 12.0207 3.2397 15.1236 6.8252 15.6862V10.4453H4.92088V8.27734H6.8252V6.625C6.8252 4.74531 7.94491 3.70703 9.65807 3.70703C10.4784 3.70703 11.3369 3.85352 11.3369 3.85352V5.69922H10.3912C9.45957 5.69922 9.16895 6.27741 9.16895 6.87109V8.27734H11.249L10.9165 10.4453H9.16895V15.6862C12.7544 15.1236 15.4971 12.0207 15.4971 8.27734Z" fill="white"/>
</g>
<defs>
<clipPath id="clip0_6750_3210">
<rect width="15" height="15" fill="white" transform="translate(0.49707 0.777344)"/>
</clipPath>
</defs>
</svg>
