<svg width="27" height="32" viewBox="0 0 27 32" fill="none" xmlns="http://www.w3.org/2000/svg">
<path d="M1.23057 24.4323C1.4309 26.1081 2.22168 27.6577 3.46111 28.8032C4.70055 29.9488 6.30754 30.6153 7.99391 30.6832C11.6631 30.8093 15.3356 30.8088 19.0048 30.6818C20.691 30.6142 22.298 29.948 23.5375 28.8027C24.7769 27.6574 25.5678 26.1079 25.7681 24.4323C25.9143 23.2192 25.9914 21.9988 25.9991 20.7769C25.9991 19.5435 25.9053 18.3242 25.7681 17.123C25.5681 15.4473 24.7776 13.8977 23.5384 12.7521C22.2992 11.6066 20.6924 10.94 19.0062 10.872C17.1708 10.8076 15.3354 10.774 13.5 10.7754C11.6642 10.7748 9.82856 10.807 7.99391 10.872C6.30749 10.9401 4.7005 11.6068 3.46127 12.7527C2.22204 13.8985 1.43167 15.4484 1.23197 17.1244C1.08626 18.3366 1.00914 19.556 1.00098 20.7769C1.00098 22.0131 1.09478 23.2325 1.23057 24.4309V24.4323Z" stroke="#000309" stroke-width="1.2"/>
<path d="M20.4999 10.7795V7.77657C20.4998 6.85733 20.3186 5.9471 19.9668 5.09787C19.6149 4.24863 19.0992 3.47702 18.4491 2.82708C17.1363 1.51447 15.3557 0.777158 13.4992 0.777344C11.6427 0.777529 9.86235 1.5152 8.54974 2.82807C7.23713 4.14094 6.49981 5.92148 6.5 7.77797V10.7795" stroke="#000309" stroke-width="1.2" stroke-linecap="round" stroke-linejoin="round"/>
<path d="M13.5002 23.7772C14.2959 23.7772 15.059 23.4611 15.6216 22.8985C16.1842 22.3358 16.5003 21.5727 16.5003 20.777C16.5003 19.9813 16.1842 19.2182 15.6216 18.6556C15.059 18.0929 14.2959 17.7769 13.5002 17.7769C12.7045 17.7769 11.9414 18.0929 11.3787 18.6556C10.8161 19.2182 10.5 19.9813 10.5 20.777C10.5 21.5727 10.8161 22.3358 11.3787 22.8985C11.9414 23.4611 12.7045 23.7772 13.5002 23.7772Z" stroke="#000309" stroke-width="1.2"/>
</svg>
