<svg width="30" height="31" viewBox="0 0 30 31" fill="none" xmlns="http://www.w3.org/2000/svg">
<path d="M2.77482 7.61738C2.61847 7.66075 2.47624 7.74436 2.36232 7.85988C2.2235 8.02931 2.14637 8.24087 2.14357 8.45988C1.55607 14.1036 1.54357 17.4911 2.14357 23.0936C2.14386 23.2929 2.20427 23.4874 2.31689 23.6518C2.42952 23.8161 2.58911 23.9427 2.77482 24.0149L14.6423 28.6349L14.9986 28.7336L15.3561 28.6336L27.2236 24.0161C27.4079 23.9419 27.5662 23.8149 27.6785 23.651C27.7908 23.4871 27.8522 23.2936 27.8548 23.0949C28.4798 17.4236 28.4873 14.1536 27.8548 8.53488C27.8718 8.28931 27.7935 8.04664 27.6361 7.85738C27.5324 7.71281 27.3891 7.60126 27.2236 7.53613V7.53863" stroke="#000309" stroke-linecap="round" stroke-linejoin="round"/>
<path d="M21.8751 11.096L15.3563 13.6335H14.6426L2.7751 9.01475C2.61947 8.95215 2.48194 8.85167 2.37498 8.72245C2.26802 8.59323 2.19502 8.43934 2.1626 8.27475C2.19397 8.12052 2.26264 7.97632 2.3626 7.85475C2.47681 7.74014 2.61902 7.6574 2.7751 7.61475L8.70885 5.306M21.8751 11.096L27.2251 9.01475C27.3821 8.95357 27.5209 8.85341 27.6285 8.72373C27.7361 8.59405 27.8089 8.4391 27.8401 8.2735H27.8376C27.806 8.11971 27.7374 7.97596 27.6376 7.85475C27.5336 7.71043 27.3905 7.59894 27.2251 7.5335L15.3576 2.99725C15.2452 2.94755 15.1236 2.92188 15.0007 2.92188C14.8778 2.92188 14.7563 2.94755 14.6438 2.99725L8.70885 5.306M21.8751 11.096L8.70885 5.306M15.0001 28.7335V13.6335M19.3751 22.0273L24.3751 20.1523" stroke="#000309" stroke-linecap="round" stroke-linejoin="round"/>
</svg>
