<svg width="16" height="16" viewBox="0 0 16 16" fill="none" xmlns="http://www.w3.org/2000/svg">
<g clip-path="url(#clip0_6750_3206)">
<path d="M7.99707 2.12793C10.001 2.12793 10.2383 2.13672 11.0264 2.17188C11.7588 2.2041 12.1543 2.32715 12.418 2.42969C12.7666 2.56445 13.0186 2.72852 13.2793 2.98926C13.543 3.25293 13.7041 3.50195 13.8389 3.85059C13.9414 4.11425 14.0644 4.51269 14.0967 5.24219C14.1319 6.03319 14.1406 6.2705 14.1406 8.2715C14.1406 10.2754 14.1319 10.5127 14.0967 11.3008C14.0644 12.0332 13.9414 12.4287 13.8389 12.6924C13.7041 13.041 13.54 13.293 13.2793 13.5537C13.0156 13.8174 12.7666 13.9785 12.418 14.1133C12.1543 14.2158 11.7559 14.3389 11.0264 14.3711C10.2354 14.4062 9.99804 14.415 7.99707 14.415C5.99316 14.415 5.75585 14.4062 4.96779 14.3711C4.23535 14.3389 3.83985 14.2158 3.57617 14.1133C3.22754 13.9785 2.97559 13.8145 2.71485 13.5537C2.45117 13.29 2.29004 13.041 2.15527 12.6924C2.05274 12.4287 1.92969 12.0303 1.89746 11.3008C1.8623 10.5098 1.85352 10.2725 1.85352 8.2715C1.85352 6.26759 1.8623 6.03028 1.89746 5.24219C1.92969 4.50975 2.05274 4.11425 2.15527 3.85059C2.29004 3.50195 2.4541 3.25 2.71485 2.98926C2.97852 2.72559 3.22754 2.56445 3.57617 2.42969C3.83985 2.32715 4.23829 2.2041 4.96779 2.17188C5.75585 2.13672 5.99316 2.12793 7.99707 2.12793ZM7.99707 0.777344C5.96095 0.777344 5.70607 0.786133 4.90626 0.821289C4.10938 0.856445 3.56152 0.985352 3.08691 1.16992C2.5918 1.36328 2.17285 1.61816 1.75684 2.03711C1.33789 2.45312 1.08301 2.87207 0.889648 3.36426C0.705078 3.8418 0.576172 4.38672 0.541016 5.18359C0.505859 5.98631 0.49707 6.24122 0.49707 8.27734C0.49707 10.3135 0.505859 10.5684 0.541016 11.3682C0.576172 12.165 0.705078 12.7129 0.889648 13.1875C1.08301 13.6826 1.33789 14.1016 1.75684 14.5176C2.17285 14.9336 2.5918 15.1914 3.08399 15.3818C3.56152 15.5664 4.10645 15.6953 4.90332 15.7305C5.70313 15.7656 5.95801 15.7744 7.99413 15.7744C10.0303 15.7744 10.2852 15.7656 11.085 15.7305C11.8819 15.6953 12.4297 15.5664 12.9043 15.3818C13.3965 15.1914 13.8154 14.9336 14.2314 14.5176C14.6475 14.1016 14.9053 13.6826 15.0957 13.1904C15.2803 12.7129 15.4092 12.168 15.4444 11.3711C15.4795 10.5713 15.4883 10.3164 15.4883 8.28028C15.4883 6.24416 15.4795 5.98925 15.4444 5.18947C15.4092 4.39259 15.2803 3.84473 15.0957 3.37012C14.9111 2.87207 14.6563 2.45312 14.2373 2.03711C13.8213 1.62109 13.4024 1.36328 12.9102 1.17285C12.4326 0.988281 11.8877 0.859375 11.0908 0.824219C10.2881 0.786133 10.0332 0.777344 7.99707 0.777344Z" fill="white"/>
<path d="M7.99706 4.4248C5.87013 4.4248 4.14453 6.1504 4.14453 8.27734C4.14453 10.4043 5.87013 12.1299 7.99706 12.1299C10.124 12.1299 11.8496 10.4043 11.8496 8.27734C11.8496 6.1504 10.124 4.4248 7.99706 4.4248ZM7.99706 10.7764C6.61719 10.7764 5.49803 9.65721 5.49803 8.27734C5.49803 6.89746 6.61719 5.7783 7.99706 5.7783C9.37694 5.7783 10.4961 6.89746 10.4961 8.27734C10.4961 9.65721 9.37694 10.7764 7.99706 10.7764Z" fill="white"/>
<path d="M12.9014 4.27247C12.9014 4.7705 12.4971 5.17187 12.0019 5.17187C11.5039 5.17187 11.1025 4.76759 11.1025 4.27247C11.1025 3.77442 11.5069 3.37305 12.0019 3.37305C12.4971 3.37305 12.9014 3.77734 12.9014 4.27247Z" fill="white"/>
</g>
<defs>
<clipPath id="clip0_6750_3206">
<rect width="15" height="15" fill="white" transform="translate(0.49707 0.777344)"/>
</clipPath>
</defs>
</svg>
