<svg width="16" height="16" viewBox="0 0 16 16" fill="none" xmlns="http://www.w3.org/2000/svg">
<g clip-path="url(#clip0_6750_3212)">
<path d="M3.62207 2.65234C3.62207 3.52734 2.93457 4.21484 2.05957 4.21484C1.18457 4.21484 0.49707 3.52734 0.49707 2.65234C0.49707 1.77734 1.18457 1.08984 2.05957 1.08984C2.93457 1.08984 3.62207 1.77734 3.62207 2.65234ZM3.62207 5.46484H0.49707V15.4648H3.62207V5.46484ZM8.62207 5.46484H5.49707V15.4648H8.62207V10.2148C8.62207 7.27734 12.3721 7.02734 12.3721 10.2148V15.4648H15.4971V9.15234C15.4971 4.21484 9.93457 4.40234 8.62207 6.83984V5.46484Z" fill="white"/>
</g>
<defs>
<clipPath id="clip0_6750_3212">
<rect width="15" height="15" fill="white" transform="translate(0.49707 0.777344)"/>
</clipPath>
</defs>
</svg>
