<svg width="21" height="21" viewBox="0 0 21 21" fill="none" xmlns="http://www.w3.org/2000/svg">
<g clip-path="url(#clip0_6750_3182)">
<path d="M13.8399 13.9916C15.9681 10.652 15.7006 11.0687 15.7619 10.9816C16.5368 9.88871 16.9463 8.60242 16.9463 7.26172C16.9463 3.70625 14.0611 0.777344 10.501 0.777344C6.95246 0.777344 4.05566 3.70047 4.05566 7.26172C4.05566 8.60156 4.47379 9.92152 5.27402 11.0291L7.16199 13.9916C5.14344 14.3018 1.71191 15.2262 1.71191 17.2617C1.71191 18.0037 2.19621 19.0611 4.5034 19.8851C6.11441 20.4605 8.24437 20.7773 10.501 20.7773C14.7207 20.7773 19.29 19.587 19.29 17.2617C19.29 15.2259 15.8625 14.3025 13.8399 13.9916ZM6.25289 10.3846C6.24645 10.3745 6.23973 10.3646 6.2327 10.355C5.5668 9.43887 5.22754 8.35316 5.22754 7.26172C5.22754 4.33133 7.58715 1.94922 10.501 1.94922C13.4088 1.94922 15.7744 4.33238 15.7744 7.26172C15.7744 8.35492 15.4416 9.40379 14.8117 10.2957C14.7552 10.3702 15.0497 9.91269 10.501 17.0504L6.25289 10.3846ZM10.501 19.6055C5.89184 19.6055 2.88379 18.2507 2.88379 17.2617C2.88379 16.597 4.42941 15.5041 7.85441 15.0781L10.0068 18.4555C10.1144 18.6244 10.3007 18.7266 10.5009 18.7266C10.7011 18.7266 10.8875 18.6243 10.995 18.4555L13.1474 15.0781C16.5725 15.5041 18.1182 16.597 18.1182 17.2617C18.1182 18.2423 15.1372 19.6055 10.501 19.6055Z" fill="white"/>
<path d="M10.501 4.33203C8.88555 4.33203 7.57129 5.64629 7.57129 7.26172C7.57129 8.87715 8.88555 10.1914 10.501 10.1914C12.1164 10.1914 13.4307 8.87715 13.4307 7.26172C13.4307 5.64629 12.1164 4.33203 10.501 4.33203ZM10.501 9.01953C9.53172 9.01953 8.74316 8.23098 8.74316 7.26172C8.74316 6.29246 9.53172 5.50391 10.501 5.50391C11.4702 5.50391 12.2588 6.29246 12.2588 7.26172C12.2588 8.23098 11.4702 9.01953 10.501 9.01953Z" fill="white"/>
</g>
<defs>
<clipPath id="clip0_6750_3182">
<rect width="20" height="20" fill="white" transform="translate(0.500977 0.777344)"/>
</clipPath>
</defs>
</svg>
