<svg width="21" height="21" viewBox="0 0 21 21" fill="none" xmlns="http://www.w3.org/2000/svg">
<g clip-path="url(#clip0_6750_3199)">
<path d="M18.7432 3.74609H2.25879C1.28758 3.74609 0.500977 4.53758 0.500977 5.50391V16.0508C0.500977 17.0229 1.29336 17.8086 2.25879 17.8086H18.7432C19.7062 17.8086 20.501 17.0262 20.501 16.0508V5.50391C20.501 4.5393 19.7175 3.74609 18.7432 3.74609ZM18.497 4.91797C18.1379 5.2752 11.9573 11.4232 11.7439 11.6354C11.4119 11.9675 10.9705 12.1503 10.501 12.1503C10.0314 12.1503 9.59004 11.9674 9.25691 11.6343C9.1134 11.4916 3.00109 5.41148 2.50496 4.91797H18.497ZM1.67285 15.8123V5.74316L6.73684 10.7805L1.67285 15.8123ZM2.5057 16.6367L7.5677 11.6069L8.42937 12.4641C8.98273 13.0174 9.71844 13.3221 10.501 13.3221C11.2835 13.3221 12.0192 13.0174 12.5715 12.4652L13.4343 11.6069L18.4963 16.6367H2.5057ZM19.3291 15.8123L14.2651 10.7805L19.3291 5.74316V15.8123Z" fill="white"/>
</g>
<defs>
<clipPath id="clip0_6750_3199">
<rect width="20" height="20" fill="white" transform="translate(0.500977 0.777344)"/>
</clipPath>
</defs>
</svg>
