<svg width="21" height="19" viewBox="0 0 21 19" fill="none" xmlns="http://www.w3.org/2000/svg">
<path d="M6.90391 6.38892L5.50391 7.78892L10.5039 12.7889L20.5039 2.78892L19.1039 1.38892L10.5039 9.98892L6.90391 6.38892Z" fill="#7ABB42"/>
<path d="M9.50391 16.3889C5.60391 16.3889 2.50391 13.2889 2.50391 9.38892C2.50391 5.48892 5.60391 2.38892 9.50391 2.38892C10.7039 2.38892 11.9039 2.68892 13.0039 3.28892L14.0039 1.58892C12.6039 0.788916 11.1039 0.388916 9.50391 0.388916C4.50391 0.388916 0.503906 4.38892 0.503906 9.38892C0.503906 14.3889 4.50391 18.3889 9.50391 18.3889C14.5039 18.3889 18.5039 14.3889 18.5039 9.38892H16.5039C16.5039 13.2889 13.4039 16.3889 9.50391 16.3889Z" fill="#7ABB42"/>
</svg>
