<svg width="19" height="16" viewBox="0 0 19 16" fill="none" xmlns="http://www.w3.org/2000/svg">
<g clip-path="url(#clip0_6750_3214)">
<path d="M6.15968 15.5899C12.9505 15.5899 16.6658 9.96243 16.6658 5.0838C16.6658 4.92558 16.6623 4.76388 16.6552 4.60567C17.378 4.083 18.0017 3.4356 18.4971 2.69388C17.8239 2.99336 17.1093 3.18894 16.3775 3.27396C17.148 2.81208 17.725 2.08651 18.0014 1.23173C17.2765 1.66132 16.4838 1.96436 15.6572 2.12786C15.1002 1.53608 14.3638 1.14424 13.5618 1.01294C12.7599 0.881644 11.937 1.01819 11.2204 1.40148C10.5038 1.78476 9.93342 2.39343 9.59746 3.13339C9.2615 3.87334 9.17866 4.70336 9.36173 5.49513C7.89395 5.42148 6.45803 5.04018 5.14707 4.37598C3.83609 3.71177 2.67934 2.77948 1.7518 1.63954C1.28037 2.45234 1.13611 3.41414 1.34834 4.32947C1.56057 5.24482 2.11337 6.045 2.89437 6.56741C2.30804 6.54877 1.73455 6.3909 1.22129 6.10683V6.15255C1.22076 7.00552 1.51565 7.83236 2.0558 8.49247C2.59596 9.15262 3.34806 9.60532 4.18426 9.77366C3.64111 9.92223 3.07106 9.94391 2.5182 9.83692C2.75416 10.5705 3.21325 11.2121 3.8314 11.6722C4.44953 12.1322 5.1959 12.3879 5.96633 12.4033C4.65837 13.4307 3.0427 13.988 1.37949 13.9854C1.08453 13.9849 0.78987 13.9668 0.49707 13.9312C2.18671 15.0152 4.15222 15.591 6.15968 15.5899Z" fill="white"/>
</g>
<defs>
<clipPath id="clip0_6750_3214">
<rect width="18" height="15" fill="white" transform="translate(0.49707 0.777344)"/>
</clipPath>
</defs>
</svg>
