<svg width="24" height="24" viewBox="0 0 24 24" fill="none" xmlns="http://www.w3.org/2000/svg">
<path fill-rule="evenodd" clip-rule="evenodd" d="M12 2C13.3261 2 14.5979 2.52678 15.5355 3.46447C16.4732 4.40215 17 5.67392 17 7C17 8.32608 16.4732 9.59785 15.5355 10.5355C14.5979 11.4732 13.3261 12 12 12C10.6739 12 9.40215 11.4732 8.46447 10.5355C7.52678 9.59785 7 8.32608 7 7C7 5.67392 7.52678 4.40215 8.46447 3.46447C9.40215 2.52678 10.6739 2 12 2ZM12 3.429C11.0529 3.429 10.1446 3.80523 9.47492 4.47492C8.80523 5.14461 8.429 6.05291 8.429 7C8.429 7.94709 8.80523 8.85539 9.47492 9.52508C10.1446 10.1948 11.0529 10.571 12 10.571C12.9471 10.571 13.8554 10.1948 14.5251 9.52508C15.1948 8.85539 15.571 7.94709 15.571 7C15.571 6.05291 15.1948 5.14461 14.5251 4.47492C13.8554 3.80523 12.9471 3.429 12 3.429Z" fill="white"/>
<path fill-rule="evenodd" clip-rule="evenodd" d="M3 18.25C3 15.764 7.542 14.25 12.028 14.25C16.514 14.25 21 15.764 21 18.25V21.25H3V18.25Z" stroke="white" stroke-width="1.5"/>
<path d="M12 11.25C14.3472 11.25 16.25 9.34721 16.25 7C16.25 4.65279 14.3472 2.75 12 2.75C9.65279 2.75 7.75 4.65279 7.75 7C7.75 9.34721 9.65279 11.25 12 11.25Z" stroke="white" stroke-width="1.5"/>
</svg>
